<svg width="18" height="20" viewBox="0 0 18 20" fill="none" xmlns="http://www.w3.org/2000/svg">
<g id="Frame">
<path id="Vector" d="M4.11111 8.61111H5.66667V10.2778H4.11111V8.61111ZM15 4.44444V16.1111C15 17.0278 14.3 17.7778 13.4444 17.7778H2.55556C2.143 17.7778 1.74733 17.6022 1.45561 17.2896C1.16389 16.9771 1 16.5531 1 16.1111L1.00778 4.44444C1.00778 3.52778 1.69222 2.77778 2.55556 2.77778H3.33333V1.11111H4.88889V2.77778H11.1111V1.11111H12.6667V2.77778H13.4444C14.3 2.77778 15 3.52778 15 4.44444ZM2.55556 6.11111H13.4444V4.44444H2.55556V6.11111ZM13.4444 16.1111V7.77778H2.55556V16.1111H13.4444ZM10.3333 10.2778H11.8889V8.61111H10.3333V10.2778ZM7.22222 10.2778H8.77778V8.61111H7.22222V10.2778Z" fill="#7688A4"/>
</g>
</svg>
